# xmcd
#
# Track frame offsets: 
#        150
#        14543
#        27289
#        40111
#        54718
#        67088
#        78667
#        90411
#        103222
#        114788
#
# Disc length: 1679 seconds
#
# Revision: 0
# Processed by: cddbd v1.5.2PL0 Copyright (c) Steve Scherf et al.
# Submitted via: ExactAudioCopy v0.99pb4
#
DISCID=7d068d0a
DTITLE=Mel Street - Don't Let Me Cross Over
DYEAR=2009
DGENRE=Country
TTITLE0=Don't Let Me Cross Over
TTITLE1=Small Enough To Crawl
TTITLE2=I Found Heaven In Your Arms Tonight
TTITLE3=Guilty As Sin
TTITLE4=You Cared Enough To Send The Very Best
TTITLE5=Tonight Let's Sleep On It Baby
TTITLE6=She Stood By Me
TTITLE7=Slip Away
TTITLE8=Spoiled Lonely Man
TTITLE9=Stolen Love And Borrowed Time
EXTD=
EXTT0=
EXTT1=
EXTT2=
EXTT3=
EXTT4=
EXTT5=
EXTT6=
EXTT7=
EXTT8=
EXTT9=
PLAYORDER=
